<?xml version="1.0" encoding="utf-8" standalone="no"?>
<!DOCTYPE svg PUBLIC "-//W3C//DTD SVG 1.1//EN"
  "http://www.w3.org/Graphics/SVG/1.1/DTD/svg11.dtd">
<svg xmlns:xlink="http://www.w3.org/1999/xlink" width="572.4pt" height="568.8pt" viewBox="0 0 572.4 568.8" xmlns="http://www.w3.org/2000/svg" version="1.1">
 <metadata>
  <rdf:RDF xmlns:dc="http://purl.org/dc/elements/1.1/" xmlns:cc="http://creativecommons.org/ns#" xmlns:rdf="http://www.w3.org/1999/02/22-rdf-syntax-ns#">
   <cc:Work>
    <dc:type rdf:resource="http://purl.org/dc/dcmitype/StillImage"/>
    <dc:date>2023-11-13T06:22:45.104683</dc:date>
    <dc:format>image/svg+xml</dc:format>
    <dc:creator>
     <cc:Agent>
      <dc:title>Matplotlib v3.7.1, https://matplotlib.org/</dc:title>
     </cc:Agent>
    </dc:creator>
   </cc:Work>
  </rdf:RDF>
 </metadata>
 <defs>
  <style type="text/css">*{stroke-linejoin: round; stroke-linecap: butt}</style>
 </defs>
 <g id="figure_1">
  <g id="patch_1">
   <path d="M 0 568.8 
L 572.4 568.8 
L 572.4 0 
L 0 0 
z
" style="fill: #ffffff"/>
  </g>
  <g id="axes_1">
   <g id="PathCollection_1">
    <defs>
     <path id="ma2eaac3d88" d="M 0 3.162278 
C 0.838646 3.162278 1.643056 2.82908 2.236068 2.236068 
C 2.82908 1.643056 3.162278 0.838646 3.162278 0 
C 3.162278 -0.838646 2.82908 -1.643056 2.236068 -2.236068 
C 1.643056 -2.82908 0.838646 -3.162278 0 -3.162278 
C -0.838646 -3.162278 -1.643056 -2.82908 -2.236068 -2.236068 
C -2.82908 -1.643056 -3.162278 -0.838646 -3.162278 0 
C -3.162278 0.838646 -2.82908 1.643056 -2.236068 2.236068 
C -1.643056 2.82908 -0.838646 3.162278 0 3.162278 
z
" style="stroke: #000000"/>
    </defs>
    <g clip-path="url(#pb48cc74b6f)">
     <use xlink:href="#ma2eaac3d88" x="390.638503" y="32.4" style="stroke: #000000"/>
    </g>
   </g>
   <g id="PathCollection_2">
    <g clip-path="url(#pb48cc74b6f)">
     <use xlink:href="#ma2eaac3d88" x="166.841711" y="116.4" style="stroke: #000000"/>
    </g>
   </g>
   <g id="PathCollection_3">
    <defs>
     <path id="m5ddd52a93a" d="M 0 5 
C 1.326016 5 2.597899 4.473168 3.535534 3.535534 
C 4.473168 2.597899 5 1.326016 5 0 
C 5 -1.326016 4.473168 -2.597899 3.535534 -3.535534 
C 2.597899 -4.473168 1.326016 -5 0 -5 
C -1.326016 -5 -2.597899 -4.473168 -3.535534 -3.535534 
C -4.473168 -2.597899 -5 -1.326016 -5 0 
C -5 1.326016 -4.473168 2.597899 -3.535534 3.535534 
C -2.597899 4.473168 -1.326016 5 0 5 
z
" style="stroke: #ff0000"/>
    </defs>
    <g clip-path="url(#pb48cc74b6f)">
     <use xlink:href="#m5ddd52a93a" x="122.082353" y="200.4" style="fill: #ff0000; stroke: #ff0000"/>
    </g>
   </g>
   <g id="PathCollection_4">
    <g clip-path="url(#pb48cc74b6f)">
     <use xlink:href="#ma2eaac3d88" x="62.403209" y="284.4" style="stroke: #000000"/>
    </g>
   </g>
   <g id="PathCollection_5">
    <g clip-path="url(#pb48cc74b6f)">
     <use xlink:href="#m5ddd52a93a" x="32.563636" y="368.4" style="fill: #ff0000; stroke: #ff0000"/>
    </g>
   </g>
   <g id="PathCollection_6">
    <g clip-path="url(#pb48cc74b6f)">
     <use xlink:href="#m5ddd52a93a" x="47.483422" y="452.4" style="fill: #ff0000; stroke: #ff0000"/>
    </g>
   </g>
   <g id="PathCollection_7">
    <g clip-path="url(#pb48cc74b6f)">
     <use xlink:href="#m5ddd52a93a" x="77.322995" y="368.4" style="fill: #ff0000; stroke: #ff0000"/>
    </g>
   </g>
   <g id="PathCollection_8">
    <g clip-path="url(#pb48cc74b6f)">
     <use xlink:href="#ma2eaac3d88" x="92.242781" y="452.4" style="stroke: #000000"/>
    </g>
   </g>
   <g id="PathCollection_9">
    <g clip-path="url(#pb48cc74b6f)">
     <use xlink:href="#m5ddd52a93a" x="107.162567" y="536.4" style="fill: #ff0000; stroke: #ff0000"/>
    </g>
   </g>
   <g id="PathCollection_10">
    <g clip-path="url(#pb48cc74b6f)">
     <use xlink:href="#ma2eaac3d88" x="137.002139" y="284.4" style="stroke: #000000"/>
    </g>
   </g>
   <g id="PathCollection_11">
    <g clip-path="url(#pb48cc74b6f)">
     <use xlink:href="#m5ddd52a93a" x="151.921925" y="368.4" style="fill: #ff0000; stroke: #ff0000"/>
    </g>
   </g>
   <g id="PathCollection_12">
    <g clip-path="url(#pb48cc74b6f)">
     <use xlink:href="#ma2eaac3d88" x="196.681283" y="200.4" style="stroke: #000000"/>
    </g>
   </g>
   <g id="PathCollection_13">
    <g clip-path="url(#pb48cc74b6f)">
     <use xlink:href="#m5ddd52a93a" x="181.761497" y="284.4" style="fill: #ff0000; stroke: #ff0000"/>
    </g>
   </g>
   <g id="PathCollection_14">
    <g clip-path="url(#pb48cc74b6f)">
     <use xlink:href="#m5ddd52a93a" x="211.60107" y="284.4" style="fill: #ff0000; stroke: #ff0000"/>
    </g>
   </g>
   <g id="PathCollection_15">
    <g clip-path="url(#pb48cc74b6f)">
     <use xlink:href="#ma2eaac3d88" x="226.520856" y="368.4" style="stroke: #000000"/>
    </g>
   </g>
   <g id="PathCollection_16">
    <g clip-path="url(#pb48cc74b6f)">
     <use xlink:href="#ma2eaac3d88" x="241.440642" y="452.4" style="stroke: #000000"/>
    </g>
   </g>
   <g id="PathCollection_17">
    <g clip-path="url(#pb48cc74b6f)">
     <use xlink:href="#m5ddd52a93a" x="256.360428" y="536.4" style="fill: #ff0000; stroke: #ff0000"/>
    </g>
   </g>
   <g id="PathCollection_18">
    <g clip-path="url(#pb48cc74b6f)">
     <use xlink:href="#ma2eaac3d88" x="316.039572" y="200.4" style="stroke: #000000"/>
    </g>
   </g>
   <g id="PathCollection_19">
    <g clip-path="url(#pb48cc74b6f)">
     <use xlink:href="#m5ddd52a93a" x="271.280214" y="284.4" style="fill: #ff0000; stroke: #ff0000"/>
    </g>
   </g>
   <g id="PathCollection_20">
    <g clip-path="url(#pb48cc74b6f)">
     <use xlink:href="#ma2eaac3d88" x="286.2" y="284.4" style="stroke: #000000"/>
    </g>
   </g>
   <g id="PathCollection_21">
    <g clip-path="url(#pb48cc74b6f)">
     <use xlink:href="#m5ddd52a93a" x="301.119786" y="368.4" style="fill: #ff0000; stroke: #ff0000"/>
    </g>
   </g>
   <g id="PathCollection_22">
    <g clip-path="url(#pb48cc74b6f)">
     <use xlink:href="#m5ddd52a93a" x="330.959358" y="284.4" style="fill: #ff0000; stroke: #ff0000"/>
    </g>
   </g>
   <g id="PathCollection_23">
    <g clip-path="url(#pb48cc74b6f)">
     <use xlink:href="#m5ddd52a93a" x="345.879144" y="284.4" style="fill: #ff0000; stroke: #ff0000"/>
    </g>
   </g>
   <g id="PathCollection_24">
    <g clip-path="url(#pb48cc74b6f)">
     <use xlink:href="#ma2eaac3d88" x="360.79893" y="368.4" style="stroke: #000000"/>
    </g>
   </g>
   <g id="PathCollection_25">
    <g clip-path="url(#pb48cc74b6f)">
     <use xlink:href="#m5ddd52a93a" x="375.718717" y="452.4" style="fill: #ff0000; stroke: #ff0000"/>
    </g>
   </g>
   <g id="PathCollection_26">
    <g clip-path="url(#pb48cc74b6f)">
     <use xlink:href="#ma2eaac3d88" x="465.237433" y="116.4" style="stroke: #000000"/>
    </g>
   </g>
   <g id="PathCollection_27">
    <g clip-path="url(#pb48cc74b6f)">
     <use xlink:href="#ma2eaac3d88" x="435.397861" y="200.4" style="stroke: #000000"/>
    </g>
   </g>
   <g id="PathCollection_28">
    <g clip-path="url(#pb48cc74b6f)">
     <use xlink:href="#ma2eaac3d88" x="405.558289" y="284.4" style="stroke: #000000"/>
    </g>
   </g>
   <g id="PathCollection_29">
    <g clip-path="url(#pb48cc74b6f)">
     <use xlink:href="#m5ddd52a93a" x="420.478075" y="368.4" style="fill: #ff0000; stroke: #ff0000"/>
    </g>
   </g>
   <g id="PathCollection_30">
    <g clip-path="url(#pb48cc74b6f)">
     <use xlink:href="#m5ddd52a93a" x="450.317647" y="284.4" style="fill: #ff0000; stroke: #ff0000"/>
    </g>
   </g>
   <g id="PathCollection_31">
    <g clip-path="url(#pb48cc74b6f)">
     <use xlink:href="#ma2eaac3d88" x="480.157219" y="200.4" style="stroke: #000000"/>
    </g>
   </g>
   <g id="PathCollection_32">
    <g clip-path="url(#pb48cc74b6f)">
     <use xlink:href="#ma2eaac3d88" x="509.996791" y="284.4" style="stroke: #000000"/>
    </g>
   </g>
   <g id="PathCollection_33">
    <g clip-path="url(#pb48cc74b6f)">
     <use xlink:href="#m5ddd52a93a" x="495.077005" y="368.4" style="fill: #ff0000; stroke: #ff0000"/>
    </g>
   </g>
   <g id="PathCollection_34">
    <g clip-path="url(#pb48cc74b6f)">
     <use xlink:href="#ma2eaac3d88" x="524.916578" y="368.4" style="stroke: #000000"/>
    </g>
   </g>
   <g id="PathCollection_35">
    <g clip-path="url(#pb48cc74b6f)">
     <use xlink:href="#m5ddd52a93a" x="539.836364" y="452.4" style="fill: #ff0000; stroke: #ff0000"/>
    </g>
   </g>
   <g id="line2d_1">
    <path d="M 390.638503 32.4 
L 166.841711 116.4 
" clip-path="url(#pb48cc74b6f)" style="fill: none; stroke: #1f77b4; stroke-width: 1.5; stroke-linecap: square"/>
   </g>
   <g id="line2d_2">
    <path d="M 166.841711 116.4 
L 122.082353 200.4 
" clip-path="url(#pb48cc74b6f)" style="fill: none; stroke: #ff7f0e; stroke-width: 1.5; stroke-linecap: square"/>
   </g>
   <g id="line2d_3">
    <path d="M 122.082353 200.4 
L 62.403209 284.4 
" clip-path="url(#pb48cc74b6f)" style="fill: none; stroke: #2ca02c; stroke-width: 1.5; stroke-linecap: square"/>
   </g>
   <g id="line2d_4">
    <path d="M 62.403209 284.4 
L 32.563636 368.4 
" clip-path="url(#pb48cc74b6f)" style="fill: none; stroke: #d62728; stroke-width: 1.5; stroke-linecap: square"/>
   </g>
   <g id="line2d_5">
    <path d="M 32.563636 368.4 
L 47.483422 452.4 
" clip-path="url(#pb48cc74b6f)" style="fill: none; stroke: #9467bd; stroke-width: 1.5; stroke-linecap: square"/>
   </g>
   <g id="line2d_6">
    <path d="M 62.403209 284.4 
L 77.322995 368.4 
" clip-path="url(#pb48cc74b6f)" style="fill: none; stroke: #8c564b; stroke-width: 1.5; stroke-linecap: square"/>
   </g>
   <g id="line2d_7">
    <path d="M 77.322995 368.4 
L 92.242781 452.4 
" clip-path="url(#pb48cc74b6f)" style="fill: none; stroke: #e377c2; stroke-width: 1.5; stroke-linecap: square"/>
   </g>
   <g id="line2d_8">
    <path d="M 92.242781 452.4 
L 107.162567 536.4 
" clip-path="url(#pb48cc74b6f)" style="fill: none; stroke: #7f7f7f; stroke-width: 1.5; stroke-linecap: square"/>
   </g>
   <g id="line2d_9">
    <path d="M 122.082353 200.4 
L 137.002139 284.4 
" clip-path="url(#pb48cc74b6f)" style="fill: none; stroke: #bcbd22; stroke-width: 1.5; stroke-linecap: square"/>
   </g>
   <g id="line2d_10">
    <path d="M 137.002139 284.4 
L 151.921925 368.4 
" clip-path="url(#pb48cc74b6f)" style="fill: none; stroke: #17becf; stroke-width: 1.5; stroke-linecap: square"/>
   </g>
   <g id="line2d_11">
    <path d="M 166.841711 116.4 
L 196.681283 200.4 
" clip-path="url(#pb48cc74b6f)" style="fill: none; stroke: #1f77b4; stroke-width: 1.5; stroke-linecap: square"/>
   </g>
   <g id="line2d_12">
    <path d="M 196.681283 200.4 
L 181.761497 284.4 
" clip-path="url(#pb48cc74b6f)" style="fill: none; stroke: #ff7f0e; stroke-width: 1.5; stroke-linecap: square"/>
   </g>
   <g id="line2d_13">
    <path d="M 196.681283 200.4 
L 211.60107 284.4 
" clip-path="url(#pb48cc74b6f)" style="fill: none; stroke: #2ca02c; stroke-width: 1.5; stroke-linecap: square"/>
   </g>
   <g id="line2d_14">
    <path d="M 211.60107 284.4 
L 226.520856 368.4 
" clip-path="url(#pb48cc74b6f)" style="fill: none; stroke: #d62728; stroke-width: 1.5; stroke-linecap: square"/>
   </g>
   <g id="line2d_15">
    <path d="M 226.520856 368.4 
L 241.440642 452.4 
" clip-path="url(#pb48cc74b6f)" style="fill: none; stroke: #9467bd; stroke-width: 1.5; stroke-linecap: square"/>
   </g>
   <g id="line2d_16">
    <path d="M 241.440642 452.4 
L 256.360428 536.4 
" clip-path="url(#pb48cc74b6f)" style="fill: none; stroke: #8c564b; stroke-width: 1.5; stroke-linecap: square"/>
   </g>
   <g id="line2d_17">
    <path d="M 166.841711 116.4 
L 316.039572 200.4 
" clip-path="url(#pb48cc74b6f)" style="fill: none; stroke: #e377c2; stroke-width: 1.5; stroke-linecap: square"/>
   </g>
   <g id="line2d_18">
    <path d="M 316.039572 200.4 
L 271.280214 284.4 
" clip-path="url(#pb48cc74b6f)" style="fill: none; stroke: #7f7f7f; stroke-width: 1.5; stroke-linecap: square"/>
   </g>
   <g id="line2d_19">
    <path d="M 316.039572 200.4 
L 286.2 284.4 
" clip-path="url(#pb48cc74b6f)" style="fill: none; stroke: #bcbd22; stroke-width: 1.5; stroke-linecap: square"/>
   </g>
   <g id="line2d_20">
    <path d="M 286.2 284.4 
L 301.119786 368.4 
" clip-path="url(#pb48cc74b6f)" style="fill: none; stroke: #17becf; stroke-width: 1.5; stroke-linecap: square"/>
   </g>
   <g id="line2d_21">
    <path d="M 316.039572 200.4 
L 330.959358 284.4 
" clip-path="url(#pb48cc74b6f)" style="fill: none; stroke: #1f77b4; stroke-width: 1.5; stroke-linecap: square"/>
   </g>
   <g id="line2d_22">
    <path d="M 316.039572 200.4 
L 345.879144 284.4 
" clip-path="url(#pb48cc74b6f)" style="fill: none; stroke: #ff7f0e; stroke-width: 1.5; stroke-linecap: square"/>
   </g>
   <g id="line2d_23">
    <path d="M 345.879144 284.4 
L 360.79893 368.4 
" clip-path="url(#pb48cc74b6f)" style="fill: none; stroke: #2ca02c; stroke-width: 1.5; stroke-linecap: square"/>
   </g>
   <g id="line2d_24">
    <path d="M 360.79893 368.4 
L 375.718717 452.4 
" clip-path="url(#pb48cc74b6f)" style="fill: none; stroke: #d62728; stroke-width: 1.5; stroke-linecap: square"/>
   </g>
   <g id="line2d_25">
    <path d="M 390.638503 32.4 
L 465.237433 116.4 
" clip-path="url(#pb48cc74b6f)" style="fill: none; stroke: #9467bd; stroke-width: 1.5; stroke-linecap: square"/>
   </g>
   <g id="line2d_26">
    <path d="M 465.237433 116.4 
L 435.397861 200.4 
" clip-path="url(#pb48cc74b6f)" style="fill: none; stroke: #8c564b; stroke-width: 1.5; stroke-linecap: square"/>
   </g>
   <g id="line2d_27">
    <path d="M 435.397861 200.4 
L 405.558289 284.4 
" clip-path="url(#pb48cc74b6f)" style="fill: none; stroke: #e377c2; stroke-width: 1.5; stroke-linecap: square"/>
   </g>
   <g id="line2d_28">
    <path d="M 405.558289 284.4 
L 420.478075 368.4 
" clip-path="url(#pb48cc74b6f)" style="fill: none; stroke: #7f7f7f; stroke-width: 1.5; stroke-linecap: square"/>
   </g>
   <g id="line2d_29">
    <path d="M 435.397861 200.4 
L 450.317647 284.4 
" clip-path="url(#pb48cc74b6f)" style="fill: none; stroke: #bcbd22; stroke-width: 1.5; stroke-linecap: square"/>
   </g>
   <g id="line2d_30">
    <path d="M 465.237433 116.4 
L 480.157219 200.4 
" clip-path="url(#pb48cc74b6f)" style="fill: none; stroke: #17becf; stroke-width: 1.5; stroke-linecap: square"/>
   </g>
   <g id="line2d_31">
    <path d="M 480.157219 200.4 
L 509.996791 284.4 
" clip-path="url(#pb48cc74b6f)" style="fill: none; stroke: #1f77b4; stroke-width: 1.5; stroke-linecap: square"/>
   </g>
   <g id="line2d_32">
    <path d="M 509.996791 284.4 
L 495.077005 368.4 
" clip-path="url(#pb48cc74b6f)" style="fill: none; stroke: #ff7f0e; stroke-width: 1.5; stroke-linecap: square"/>
   </g>
   <g id="line2d_33">
    <path d="M 509.996791 284.4 
L 524.916578 368.4 
" clip-path="url(#pb48cc74b6f)" style="fill: none; stroke: #2ca02c; stroke-width: 1.5; stroke-linecap: square"/>
   </g>
   <g id="line2d_34">
    <path d="M 524.916578 368.4 
L 539.836364 452.4 
" clip-path="url(#pb48cc74b6f)" style="fill: none; stroke: #d62728; stroke-width: 1.5; stroke-linecap: square"/>
   </g>
   <g id="text_1">
    <!-- b -->
    <g transform="translate(171.317647 108) scale(0.1 -0.1)">
     <defs>
      <path id="DejaVuSans-62" d="M 3116 1747 
Q 3116 2381 2855 2742 
Q 2594 3103 2138 3103 
Q 1681 3103 1420 2742 
Q 1159 2381 1159 1747 
Q 1159 1113 1420 752 
Q 1681 391 2138 391 
Q 2594 391 2855 752 
Q 3116 1113 3116 1747 
z
M 1159 2969 
Q 1341 3281 1617 3432 
Q 1894 3584 2278 3584 
Q 2916 3584 3314 3078 
Q 3713 2572 3713 1747 
Q 3713 922 3314 415 
Q 2916 -91 2278 -91 
Q 1894 -91 1617 61 
Q 1341 213 1159 525 
L 1159 0 
L 581 0 
L 581 4863 
L 1159 4863 
L 1159 2969 
z
" transform="scale(0.015625)"/>
     </defs>
     <use xlink:href="#DejaVuSans-62"/>
    </g>
   </g>
   <g id="text_2">
    <!-- e -->
    <g transform="translate(126.558289 192) scale(0.1 -0.1)">
     <defs>
      <path id="DejaVuSans-65" d="M 3597 1894 
L 3597 1613 
L 953 1613 
Q 991 1019 1311 708 
Q 1631 397 2203 397 
Q 2534 397 2845 478 
Q 3156 559 3463 722 
L 3463 178 
Q 3153 47 2828 -22 
Q 2503 -91 2169 -91 
Q 1331 -91 842 396 
Q 353 884 353 1716 
Q 353 2575 817 3079 
Q 1281 3584 2069 3584 
Q 2775 3584 3186 3129 
Q 3597 2675 3597 1894 
z
M 3022 2063 
Q 3016 2534 2758 2815 
Q 2500 3097 2075 3097 
Q 1594 3097 1305 2825 
Q 1016 2553 972 2059 
L 3022 2063 
z
" transform="scale(0.015625)"/>
     </defs>
     <use xlink:href="#DejaVuSans-65"/>
    </g>
   </g>
   <g id="text_3">
    <!-- l -->
    <g transform="translate(66.879144 276) scale(0.1 -0.1)">
     <defs>
      <path id="DejaVuSans-6c" d="M 603 4863 
L 1178 4863 
L 1178 0 
L 603 0 
L 603 4863 
z
" transform="scale(0.015625)"/>
     </defs>
     <use xlink:href="#DejaVuSans-6c"/>
    </g>
   </g>
   <g id="text_4">
    <!-- l -->
    <g transform="translate(37.039572 360) scale(0.1 -0.1)">
     <use xlink:href="#DejaVuSans-6c"/>
    </g>
   </g>
   <g id="text_5">
    <!-- y -->
    <g transform="translate(51.959358 444) scale(0.1 -0.1)">
     <defs>
      <path id="DejaVuSans-79" d="M 2059 -325 
Q 1816 -950 1584 -1140 
Q 1353 -1331 966 -1331 
L 506 -1331 
L 506 -850 
L 844 -850 
Q 1081 -850 1212 -737 
Q 1344 -625 1503 -206 
L 1606 56 
L 191 3500 
L 800 3500 
L 1894 763 
L 2988 3500 
L 3597 3500 
L 2059 -325 
z
" transform="scale(0.015625)"/>
     </defs>
     <use xlink:href="#DejaVuSans-79"/>
    </g>
   </g>
   <g id="text_6">
    <!-- t -->
    <g transform="translate(81.79893 360) scale(0.1 -0.1)">
     <defs>
      <path id="DejaVuSans-74" d="M 1172 4494 
L 1172 3500 
L 2356 3500 
L 2356 3053 
L 1172 3053 
L 1172 1153 
Q 1172 725 1289 603 
Q 1406 481 1766 481 
L 2356 481 
L 2356 0 
L 1766 0 
Q 1100 0 847 248 
Q 594 497 594 1153 
L 594 3053 
L 172 3053 
L 172 3500 
L 594 3500 
L 594 4494 
L 1172 4494 
z
" transform="scale(0.015625)"/>
     </defs>
     <use xlink:href="#DejaVuSans-74"/>
    </g>
   </g>
   <g id="text_7">
    <!-- e -->
    <g transform="translate(96.718717 444) scale(0.1 -0.1)">
     <use xlink:href="#DejaVuSans-65"/>
    </g>
   </g>
   <g id="text_8">
    <!-- d -->
    <g transform="translate(111.638503 528) scale(0.1 -0.1)">
     <defs>
      <path id="DejaVuSans-64" d="M 2906 2969 
L 2906 4863 
L 3481 4863 
L 3481 0 
L 2906 0 
L 2906 525 
Q 2725 213 2448 61 
Q 2172 -91 1784 -91 
Q 1150 -91 751 415 
Q 353 922 353 1747 
Q 353 2572 751 3078 
Q 1150 3584 1784 3584 
Q 2172 3584 2448 3432 
Q 2725 3281 2906 2969 
z
M 947 1747 
Q 947 1113 1208 752 
Q 1469 391 1925 391 
Q 2381 391 2643 752 
Q 2906 1113 2906 1747 
Q 2906 2381 2643 2742 
Q 2381 3103 1925 3103 
Q 1469 3103 1208 2742 
Q 947 2381 947 1747 
z
" transform="scale(0.015625)"/>
     </defs>
     <use xlink:href="#DejaVuSans-64"/>
    </g>
   </g>
   <g id="text_9">
    <!-- a -->
    <g transform="translate(141.478075 276) scale(0.1 -0.1)">
     <defs>
      <path id="DejaVuSans-61" d="M 2194 1759 
Q 1497 1759 1228 1600 
Q 959 1441 959 1056 
Q 959 750 1161 570 
Q 1363 391 1709 391 
Q 2188 391 2477 730 
Q 2766 1069 2766 1631 
L 2766 1759 
L 2194 1759 
z
M 3341 1997 
L 3341 0 
L 2766 0 
L 2766 531 
Q 2569 213 2275 61 
Q 1981 -91 1556 -91 
Q 1019 -91 701 211 
Q 384 513 384 1019 
Q 384 1609 779 1909 
Q 1175 2209 1959 2209 
L 2766 2209 
L 2766 2266 
Q 2766 2663 2505 2880 
Q 2244 3097 1772 3097 
Q 1472 3097 1187 3025 
Q 903 2953 641 2809 
L 641 3341 
Q 956 3463 1253 3523 
Q 1550 3584 1831 3584 
Q 2591 3584 2966 3190 
Q 3341 2797 3341 1997 
z
" transform="scale(0.015625)"/>
     </defs>
     <use xlink:href="#DejaVuSans-61"/>
    </g>
   </g>
   <g id="text_10">
    <!-- r -->
    <g transform="translate(156.397861 360) scale(0.1 -0.1)">
     <defs>
      <path id="DejaVuSans-72" d="M 2631 2963 
Q 2534 3019 2420 3045 
Q 2306 3072 2169 3072 
Q 1681 3072 1420 2755 
Q 1159 2438 1159 1844 
L 1159 0 
L 581 0 
L 581 3500 
L 1159 3500 
L 1159 2956 
Q 1341 3275 1631 3429 
Q 1922 3584 2338 3584 
Q 2397 3584 2469 3576 
Q 2541 3569 2628 3553 
L 2631 2963 
z
" transform="scale(0.015625)"/>
     </defs>
     <use xlink:href="#DejaVuSans-72"/>
    </g>
   </g>
   <g id="text_11">
    <!-- i -->
    <g transform="translate(201.157219 192) scale(0.1 -0.1)">
     <defs>
      <path id="DejaVuSans-69" d="M 603 3500 
L 1178 3500 
L 1178 0 
L 603 0 
L 603 3500 
z
M 603 4863 
L 1178 4863 
L 1178 4134 
L 603 4134 
L 603 4863 
z
" transform="scale(0.015625)"/>
     </defs>
     <use xlink:href="#DejaVuSans-69"/>
    </g>
   </g>
   <g id="text_12">
    <!-- d -->
    <g transform="translate(186.237433 276) scale(0.1 -0.1)">
     <use xlink:href="#DejaVuSans-64"/>
    </g>
   </g>
   <g id="text_13">
    <!-- g -->
    <g transform="translate(216.077005 276) scale(0.1 -0.1)">
     <defs>
      <path id="DejaVuSans-67" d="M 2906 1791 
Q 2906 2416 2648 2759 
Q 2391 3103 1925 3103 
Q 1463 3103 1205 2759 
Q 947 2416 947 1791 
Q 947 1169 1205 825 
Q 1463 481 1925 481 
Q 2391 481 2648 825 
Q 2906 1169 2906 1791 
z
M 3481 434 
Q 3481 -459 3084 -895 
Q 2688 -1331 1869 -1331 
Q 1566 -1331 1297 -1286 
Q 1028 -1241 775 -1147 
L 775 -588 
Q 1028 -725 1275 -790 
Q 1522 -856 1778 -856 
Q 2344 -856 2625 -561 
Q 2906 -266 2906 331 
L 2906 616 
Q 2728 306 2450 153 
Q 2172 0 1784 0 
Q 1141 0 747 490 
Q 353 981 353 1791 
Q 353 2603 747 3093 
Q 1141 3584 1784 3584 
Q 2172 3584 2450 3431 
Q 2728 3278 2906 2969 
L 2906 3500 
L 3481 3500 
L 3481 434 
z
" transform="scale(0.015625)"/>
     </defs>
     <use xlink:href="#DejaVuSans-67"/>
    </g>
   </g>
   <g id="text_14">
    <!-- g -->
    <g transform="translate(230.996791 360) scale(0.1 -0.1)">
     <use xlink:href="#DejaVuSans-67"/>
    </g>
   </g>
   <g id="text_15">
    <!-- e -->
    <g transform="translate(245.916578 444) scale(0.1 -0.1)">
     <use xlink:href="#DejaVuSans-65"/>
    </g>
   </g>
   <g id="text_16">
    <!-- r -->
    <g transform="translate(260.836364 528) scale(0.1 -0.1)">
     <use xlink:href="#DejaVuSans-72"/>
    </g>
   </g>
   <g id="text_17">
    <!-- u -->
    <g transform="translate(320.515508 192) scale(0.1 -0.1)">
     <defs>
      <path id="DejaVuSans-75" d="M 544 1381 
L 544 3500 
L 1119 3500 
L 1119 1403 
Q 1119 906 1312 657 
Q 1506 409 1894 409 
Q 2359 409 2629 706 
Q 2900 1003 2900 1516 
L 2900 3500 
L 3475 3500 
L 3475 0 
L 2900 0 
L 2900 538 
Q 2691 219 2414 64 
Q 2138 -91 1772 -91 
Q 1169 -91 856 284 
Q 544 659 544 1381 
z
M 1991 3584 
L 1991 3584 
z
" transform="scale(0.015625)"/>
     </defs>
     <use xlink:href="#DejaVuSans-75"/>
    </g>
   </g>
   <g id="text_18">
    <!-- s -->
    <g transform="translate(275.75615 276) scale(0.1 -0.1)">
     <defs>
      <path id="DejaVuSans-73" d="M 2834 3397 
L 2834 2853 
Q 2591 2978 2328 3040 
Q 2066 3103 1784 3103 
Q 1356 3103 1142 2972 
Q 928 2841 928 2578 
Q 928 2378 1081 2264 
Q 1234 2150 1697 2047 
L 1894 2003 
Q 2506 1872 2764 1633 
Q 3022 1394 3022 966 
Q 3022 478 2636 193 
Q 2250 -91 1575 -91 
Q 1294 -91 989 -36 
Q 684 19 347 128 
L 347 722 
Q 666 556 975 473 
Q 1284 391 1588 391 
Q 1994 391 2212 530 
Q 2431 669 2431 922 
Q 2431 1156 2273 1281 
Q 2116 1406 1581 1522 
L 1381 1569 
Q 847 1681 609 1914 
Q 372 2147 372 2553 
Q 372 3047 722 3315 
Q 1072 3584 1716 3584 
Q 2034 3584 2315 3537 
Q 2597 3491 2834 3397 
z
" transform="scale(0.015625)"/>
     </defs>
     <use xlink:href="#DejaVuSans-73"/>
    </g>
   </g>
   <g id="text_19">
    <!-- l -->
    <g transform="translate(290.675936 276) scale(0.1 -0.1)">
     <use xlink:href="#DejaVuSans-6c"/>
    </g>
   </g>
   <g id="text_20">
    <!-- l -->
    <g transform="translate(305.595722 360) scale(0.1 -0.1)">
     <use xlink:href="#DejaVuSans-6c"/>
    </g>
   </g>
   <g id="text_21">
    <!-- y -->
    <g transform="translate(335.435294 276) scale(0.1 -0.1)">
     <use xlink:href="#DejaVuSans-79"/>
    </g>
   </g>
   <g id="text_22">
    <!-- d -->
    <g transform="translate(350.35508 276) scale(0.1 -0.1)">
     <use xlink:href="#DejaVuSans-64"/>
    </g>
   </g>
   <g id="text_23">
    <!-- d -->
    <g transform="translate(365.274866 360) scale(0.1 -0.1)">
     <use xlink:href="#DejaVuSans-64"/>
    </g>
   </g>
   <g id="text_24">
    <!-- y -->
    <g transform="translate(380.194652 444) scale(0.1 -0.1)">
     <use xlink:href="#DejaVuSans-79"/>
    </g>
   </g>
   <g id="text_25">
    <!-- s -->
    <g transform="translate(469.713369 108) scale(0.1 -0.1)">
     <use xlink:href="#DejaVuSans-73"/>
    </g>
   </g>
   <g id="text_26">
    <!-- e -->
    <g transform="translate(439.873797 192) scale(0.1 -0.1)">
     <use xlink:href="#DejaVuSans-65"/>
    </g>
   </g>
   <g id="text_27">
    <!-- l -->
    <g transform="translate(410.034225 276) scale(0.1 -0.1)">
     <use xlink:href="#DejaVuSans-6c"/>
    </g>
   </g>
   <g id="text_28">
    <!-- l -->
    <g transform="translate(424.954011 360) scale(0.1 -0.1)">
     <use xlink:href="#DejaVuSans-6c"/>
    </g>
   </g>
   <g id="text_29">
    <!-- e -->
    <g transform="translate(454.793583 276) scale(0.1 -0.1)">
     <use xlink:href="#DejaVuSans-65"/>
    </g>
   </g>
   <g id="text_30">
    <!-- t -->
    <g transform="translate(484.633155 192) scale(0.1 -0.1)">
     <use xlink:href="#DejaVuSans-74"/>
    </g>
   </g>
   <g id="text_31">
    <!-- o -->
    <g transform="translate(514.472727 276) scale(0.1 -0.1)">
     <defs>
      <path id="DejaVuSans-6f" d="M 1959 3097 
Q 1497 3097 1228 2736 
Q 959 2375 959 1747 
Q 959 1119 1226 758 
Q 1494 397 1959 397 
Q 2419 397 2687 759 
Q 2956 1122 2956 1747 
Q 2956 2369 2687 2733 
Q 2419 3097 1959 3097 
z
M 1959 3584 
Q 2709 3584 3137 3096 
Q 3566 2609 3566 1747 
Q 3566 888 3137 398 
Q 2709 -91 1959 -91 
Q 1206 -91 779 398 
Q 353 888 353 1747 
Q 353 2609 779 3096 
Q 1206 3584 1959 3584 
z
" transform="scale(0.015625)"/>
     </defs>
     <use xlink:href="#DejaVuSans-6f"/>
    </g>
   </g>
   <g id="text_32">
    <!-- p -->
    <g transform="translate(499.552941 360) scale(0.1 -0.1)">
     <defs>
      <path id="DejaVuSans-70" d="M 1159 525 
L 1159 -1331 
L 581 -1331 
L 581 3500 
L 1159 3500 
L 1159 2969 
Q 1341 3281 1617 3432 
Q 1894 3584 2278 3584 
Q 2916 3584 3314 3078 
Q 3713 2572 3713 1747 
Q 3713 922 3314 415 
Q 2916 -91 2278 -91 
Q 1894 -91 1617 61 
Q 1341 213 1159 525 
z
M 3116 1747 
Q 3116 2381 2855 2742 
Q 2594 3103 2138 3103 
Q 1681 3103 1420 2742 
Q 1159 2381 1159 1747 
Q 1159 1113 1420 752 
Q 1681 391 2138 391 
Q 2594 391 2855 752 
Q 3116 1113 3116 1747 
z
" transform="scale(0.015625)"/>
     </defs>
     <use xlink:href="#DejaVuSans-70"/>
    </g>
   </g>
   <g id="text_33">
    <!-- c -->
    <g transform="translate(529.392513 360) scale(0.1 -0.1)">
     <defs>
      <path id="DejaVuSans-63" d="M 3122 3366 
L 3122 2828 
Q 2878 2963 2633 3030 
Q 2388 3097 2138 3097 
Q 1578 3097 1268 2742 
Q 959 2388 959 1747 
Q 959 1106 1268 751 
Q 1578 397 2138 397 
Q 2388 397 2633 464 
Q 2878 531 3122 666 
L 3122 134 
Q 2881 22 2623 -34 
Q 2366 -91 2075 -91 
Q 1284 -91 818 406 
Q 353 903 353 1747 
Q 353 2603 823 3093 
Q 1294 3584 2113 3584 
Q 2378 3584 2631 3529 
Q 2884 3475 3122 3366 
z
" transform="scale(0.015625)"/>
     </defs>
     <use xlink:href="#DejaVuSans-63"/>
    </g>
   </g>
   <g id="text_34">
    <!-- k -->
    <g transform="translate(544.312299 444) scale(0.1 -0.1)">
     <defs>
      <path id="DejaVuSans-6b" d="M 581 4863 
L 1159 4863 
L 1159 1991 
L 2875 3500 
L 3609 3500 
L 1753 1863 
L 3688 0 
L 2938 0 
L 1159 1709 
L 1159 0 
L 581 0 
L 581 4863 
z
" transform="scale(0.015625)"/>
     </defs>
     <use xlink:href="#DejaVuSans-6b"/>
    </g>
   </g>
  </g>
 </g>
 <defs>
  <clipPath id="pb48cc74b6f">
   <rect x="7.2" y="7.2" width="558" height="554.4"/>
  </clipPath>
 </defs>
</svg>
